{
    "asset" : {
        "generator" : "Khronos glTF Blender I/O v1.1.46",
        "version" : "2.0"
    },
    "scene" : 0,
    "scenes" : [
        {
            "name" : "lesserPolycount",
            "nodes" : [
                0,
                1,
                2,
                3
            ]
        },
        {
            "name" : "Scene",
            "nodes" : [
                4,
                5,
                6,
                7,
                8,
                9
            ]
        }
    ],
    "nodes" : [
        {
            "mesh" : 0,
            "name" : "Stickstoff-Atom"
        },
        {
            "mesh" : 1,
            "name" : "Wasserstoff-Atom1",
            "scale" : [
                0.6878938674926758,
                0.6878938674926758,
                0.6878938674926758
            ],
            "translation" : [
                0,
                2.5,
                -3.5
            ]
        },
        {
            "mesh" : 2,
            "name" : "Wasserstoff-Atom2",
            "scale" : [
                0.6878938674926758,
                0.6878938674926758,
                0.6878938674926758
            ],
            "translation" : [
                0,
                2.5,
                3.5
            ]
        },
        {
            "mesh" : 3,
            "name" : "Wasserstoff-Atom3",
            "scale" : [
                0.6878938674926758,
                0.6878938674926758,
                0.6878938674926758
            ],
            "translation" : [
                -3.5,
                2.5,
                0
            ]
        },
        {
            "name" : "Light",
            "rotation" : [
                0.16907575726509094,
                0.7558803558349609,
                -0.27217137813568115,
                0.570947527885437
            ],
            "translation" : [
                4.076245307922363,
                5.903861999511719,
                -1.0054539442062378
            ]
        },
        {
            "name" : "Camera",
            "rotation" : [
                0.40608537197113037,
                0.3399215340614319,
                -0.16593509912490845,
                0.8318735361099243
            ],
            "translation" : [
                6.726869106292725,
                7.250007629394531,
                6.874110221862793
            ]
        },
        {
            "mesh" : 4,
            "name" : "Stickstoff-Atom.001"
        },
        {
            "mesh" : 5,
            "name" : "Wasserstoff-Atom1.001",
            "scale" : [
                0.6878938674926758,
                0.6878938674926758,
                0.6878938674926758
            ],
            "translation" : [
                0,
                1.5,
                -2
            ]
        },
        {
            "mesh" : 6,
            "name" : "Wasserstoff-Atom2.001",
            "scale" : [
                0.6878938674926758,
                0.6878938674926758,
                0.6878938674926758
            ],
            "translation" : [
                0,
                1.5,
                2
            ]
        },
        {
            "mesh" : 7,
            "name" : "Wasserstoff-Atom3.001",
            "scale" : [
                0.6878938674926758,
                0.6878938674926758,
                0.6878938674926758
            ],
            "translation" : [
                -3.5,
                2.5,
                0
            ]
        }
    ],
    "animations" : [
        {
            "channels" : [
                {
                    "sampler" : 0,
                    "target" : {
                        "node" : 1,
                        "path" : "translation"
                    }
                }
            ],
            "name" : "Sphere.001Action.002",
            "samplers" : [
                {
                    "input" : 26,
                    "interpolation" : "LINEAR",
                    "output" : 27
                }
            ]
        },
        {
            "channels" : [
                {
                    "sampler" : 0,
                    "target" : {
                        "node" : 2,
                        "path" : "translation"
                    }
                }
            ],
            "name" : "Sphere.002Action.001",
            "samplers" : [
                {
                    "input" : 26,
                    "interpolation" : "LINEAR",
                    "output" : 28
                }
            ]
        },
        {
            "channels" : [
                {
                    "sampler" : 0,
                    "target" : {
                        "node" : 3,
                        "path" : "translation"
                    }
                }
            ],
            "name" : "Sphere.001Action.003",
            "samplers" : [
                {
                    "input" : 26,
                    "interpolation" : "LINEAR",
                    "output" : 29
                }
            ]
        },
        {
            "channels" : [
                {
                    "sampler" : 0,
                    "target" : {
                        "node" : 7,
                        "path" : "translation"
                    }
                }
            ],
            "name" : "Sphere.001Action",
            "samplers" : [
                {
                    "input" : 26,
                    "interpolation" : "LINEAR",
                    "output" : 30
                }
            ]
        },
        {
            "channels" : [
                {
                    "sampler" : 0,
                    "target" : {
                        "node" : 8,
                        "path" : "translation"
                    }
                }
            ],
            "name" : "Sphere.002Action",
            "samplers" : [
                {
                    "input" : 26,
                    "interpolation" : "LINEAR",
                    "output" : 31
                }
            ]
        },
        {
            "channels" : [
                {
                    "sampler" : 0,
                    "target" : {
                        "node" : 9,
                        "path" : "translation"
                    }
                }
            ],
            "name" : "Sphere.001Action.001",
            "samplers" : [
                {
                    "input" : 26,
                    "interpolation" : "LINEAR",
                    "output" : 32
                }
            ]
        }
    ],
    "materials" : [
        {
            "doubleSided" : true,
            "emissiveFactor" : [
                0,
                0,
                0
            ],
            "name" : "StickstoffMtl",
            "pbrMetallicRoughness" : {
                "baseColorFactor" : [
                    0,
                    0.026810552924871445,
                    0.8000000715255737,
                    1
                ],
                "metallicFactor" : 0,
                "roughnessFactor" : 0.5
            }
        },
        {
            "doubleSided" : true,
            "emissiveFactor" : [
                0,
                0,
                0
            ],
            "name" : "WasserstoffMtl",
            "pbrMetallicRoughness" : {
                "baseColorFactor" : [
                    0.3075408637523651,
                    0.31854185461997986,
                    0.29108119010925293,
                    1
                ],
                "metallicFactor" : 0,
                "roughnessFactor" : 0.5
            }
        },
        {
            "doubleSided" : true,
            "emissiveFactor" : [
                0,
                0,
                0
            ],
            "name" : "Material.001",
            "pbrMetallicRoughness" : {
                "baseColorFactor" : [
                    0,
                    0.026810552924871445,
                    0.8000000715255737,
                    1
                ],
                "metallicFactor" : 0,
                "roughnessFactor" : 0.5
            }
        },
        {
            "doubleSided" : true,
            "emissiveFactor" : [
                0,
                0,
                0
            ],
            "name" : "Material.002",
            "pbrMetallicRoughness" : {
                "baseColorFactor" : [
                    0.8000000715255737,
                    0.0009899159194901586,
                    0,
                    1
                ],
                "metallicFactor" : 0,
                "roughnessFactor" : 0.5
            }
        },
        {
            "doubleSided" : true,
            "emissiveFactor" : [
                0,
                0,
                0
            ],
            "name" : "Material.003",
            "pbrMetallicRoughness" : {
                "baseColorFactor" : [
                    0.8000000715255737,
                    0.0009899159194901586,
                    0,
                    1
                ],
                "metallicFactor" : 0,
                "roughnessFactor" : 0.5
            }
        },
        {
            "doubleSided" : true,
            "emissiveFactor" : [
                0,
                0,
                0
            ],
            "name" : "Material.004",
            "pbrMetallicRoughness" : {
                "baseColorFactor" : [
                    0.8000000715255737,
                    0.0009899159194901586,
                    0,
                    1
                ],
                "metallicFactor" : 0,
                "roughnessFactor" : 0.5
            }
        }
    ],
    "meshes" : [
        {
            "name" : "Stickstoff-Atom1",
            "primitives" : [
                {
                    "attributes" : {
                        "POSITION" : 0,
                        "NORMAL" : 1,
                        "TEXCOORD_0" : 2
                    },
                    "indices" : 3,
                    "material" : 0
                }
            ]
        },
        {
            "name" : "Wasserstoff-Atom1",
            "primitives" : [
                {
                    "attributes" : {
                        "POSITION" : 4,
                        "NORMAL" : 5,
                        "TEXCOORD_0" : 6
                    },
                    "indices" : 3,
                    "material" : 1
                }
            ]
        },
        {
            "name" : "Wasserstoff-Atom2",
            "primitives" : [
                {
                    "attributes" : {
                        "POSITION" : 7,
                        "NORMAL" : 8,
                        "TEXCOORD_0" : 9
                    },
                    "indices" : 3,
                    "material" : 1
                }
            ]
        },
        {
            "name" : "Wasserstoff-Atom3",
            "primitives" : [
                {
                    "attributes" : {
                        "POSITION" : 10,
                        "NORMAL" : 11,
                        "TEXCOORD_0" : 12
                    },
                    "indices" : 3,
                    "material" : 1
                }
            ]
        },
        {
            "name" : "Sphere",
            "primitives" : [
                {
                    "attributes" : {
                        "POSITION" : 13,
                        "NORMAL" : 14,
                        "TEXCOORD_0" : 15
                    },
                    "indices" : 16,
                    "material" : 2
                }
            ]
        },
        {
            "name" : "Sphere.001",
            "primitives" : [
                {
                    "attributes" : {
                        "POSITION" : 17,
                        "NORMAL" : 18,
                        "TEXCOORD_0" : 19
                    },
                    "indices" : 16,
                    "material" : 3
                }
            ]
        },
        {
            "name" : "Sphere.002",
            "primitives" : [
                {
                    "attributes" : {
                        "POSITION" : 20,
                        "NORMAL" : 21,
                        "TEXCOORD_0" : 22
                    },
                    "indices" : 16,
                    "material" : 4
                }
            ]
        },
        {
            "name" : "Sphere.003",
            "primitives" : [
                {
                    "attributes" : {
                        "POSITION" : 23,
                        "NORMAL" : 24,
                        "TEXCOORD_0" : 25
                    },
                    "indices" : 16,
                    "material" : 5
                }
            ]
        }
    ],
    "accessors" : [
        {
            "bufferView" : 0,
            "componentType" : 5126,
            "count" : 202,
            "max" : [
                0.9807852506637573,
                1,
                0.9807853698730469
            ],
            "min" : [
                -0.9807848334312439,
                -1,
                -0.9807853102684021
            ],
            "type" : "VEC3"
        },
        {
            "bufferView" : 1,
            "componentType" : 5126,
            "count" : 202,
            "type" : "VEC3"
        },
        {
            "bufferView" : 2,
            "componentType" : 5126,
            "count" : 202,
            "type" : "VEC2"
        },
        {
            "bufferView" : 3,
            "componentType" : 5123,
            "count" : 768,
            "type" : "SCALAR"
        },
        {
            "bufferView" : 4,
            "componentType" : 5126,
            "count" : 202,
            "max" : [
                0.9807852506637573,
                1,
                0.9807853698730469
            ],
            "min" : [
                -0.9807848334312439,
                -1,
                -0.9807853102684021
            ],
            "type" : "VEC3"
        },
        {
            "bufferView" : 5,
            "componentType" : 5126,
            "count" : 202,
            "type" : "VEC3"
        },
        {
            "bufferView" : 6,
            "componentType" : 5126,
            "count" : 202,
            "type" : "VEC2"
        },
        {
            "bufferView" : 7,
            "componentType" : 5126,
            "count" : 202,
            "max" : [
                0.9807852506637573,
                1,
                0.9807853698730469
            ],
            "min" : [
                -0.9807848334312439,
                -1,
                -0.9807853102684021
            ],
            "type" : "VEC3"
        },
        {
            "bufferView" : 8,
            "componentType" : 5126,
            "count" : 202,
            "type" : "VEC3"
        },
        {
            "bufferView" : 9,
            "componentType" : 5126,
            "count" : 202,
            "type" : "VEC2"
        },
        {
            "bufferView" : 10,
            "componentType" : 5126,
            "count" : 202,
            "max" : [
                0.9807852506637573,
                1,
                0.9807853698730469
            ],
            "min" : [
                -0.9807848334312439,
                -1,
                -0.9807853102684021
            ],
            "type" : "VEC3"
        },
        {
            "bufferView" : 11,
            "componentType" : 5126,
            "count" : 202,
            "type" : "VEC3"
        },
        {
            "bufferView" : 12,
            "componentType" : 5126,
            "count" : 202,
            "type" : "VEC2"
        },
        {
            "bufferView" : 13,
            "componentType" : 5126,
            "count" : 559,
            "max" : [
                1.000000238418579,
                1,
                1.0000003576278687
            ],
            "min" : [
                -0.9999998211860657,
                -1,
                -1
            ],
            "type" : "VEC3"
        },
        {
            "bufferView" : 14,
            "componentType" : 5126,
            "count" : 559,
            "type" : "VEC3"
        },
        {
            "bufferView" : 15,
            "componentType" : 5126,
            "count" : 559,
            "type" : "VEC2"
        },
        {
            "bufferView" : 16,
            "componentType" : 5123,
            "count" : 2880,
            "type" : "SCALAR"
        },
        {
            "bufferView" : 17,
            "componentType" : 5126,
            "count" : 559,
            "max" : [
                1.000000238418579,
                1,
                1.0000003576278687
            ],
            "min" : [
                -0.9999998211860657,
                -1,
                -1
            ],
            "type" : "VEC3"
        },
        {
            "bufferView" : 18,
            "componentType" : 5126,
            "count" : 559,
            "type" : "VEC3"
        },
        {
            "bufferView" : 19,
            "componentType" : 5126,
            "count" : 559,
            "type" : "VEC2"
        },
        {
            "bufferView" : 20,
            "componentType" : 5126,
            "count" : 559,
            "max" : [
                1.000000238418579,
                1,
                1.0000003576278687
            ],
            "min" : [
                -0.9999998211860657,
                -1,
                -1
            ],
            "type" : "VEC3"
        },
        {
            "bufferView" : 21,
            "componentType" : 5126,
            "count" : 559,
            "type" : "VEC3"
        },
        {
            "bufferView" : 22,
            "componentType" : 5126,
            "count" : 559,
            "type" : "VEC2"
        },
        {
            "bufferView" : 23,
            "componentType" : 5126,
            "count" : 559,
            "max" : [
                1.000000238418579,
                1,
                1.0000003576278687
            ],
            "min" : [
                -0.9999998211860657,
                -1,
                -1
            ],
            "type" : "VEC3"
        },
        {
            "bufferView" : 24,
            "componentType" : 5126,
            "count" : 559,
            "type" : "VEC3"
        },
        {
            "bufferView" : 25,
            "componentType" : 5126,
            "count" : 559,
            "type" : "VEC2"
        },
        {
            "bufferView" : 26,
            "componentType" : 5126,
            "count" : 101,
            "max" : [
                5
            ],
            "min" : [
                0.8333333333333334
            ],
            "type" : "SCALAR"
        },
        {
            "bufferView" : 27,
            "componentType" : 5126,
            "count" : 101,
            "type" : "VEC3"
        },
        {
            "bufferView" : 28,
            "componentType" : 5126,
            "count" : 101,
            "type" : "VEC3"
        },
        {
            "bufferView" : 29,
            "componentType" : 5126,
            "count" : 101,
            "type" : "VEC3"
        },
        {
            "bufferView" : 30,
            "componentType" : 5126,
            "count" : 101,
            "type" : "VEC3"
        },
        {
            "bufferView" : 31,
            "componentType" : 5126,
            "count" : 101,
            "type" : "VEC3"
        },
        {
            "bufferView" : 32,
            "componentType" : 5126,
            "count" : 101,
            "type" : "VEC3"
        }
    ],
    "bufferViews" : [
        {
            "buffer" : 0,
            "byteLength" : 2424,
            "byteOffset" : 0
        },
        {
            "buffer" : 0,
            "byteLength" : 2424,
            "byteOffset" : 2424
        },
        {
            "buffer" : 0,
            "byteLength" : 1616,
            "byteOffset" : 4848
        },
        {
            "buffer" : 0,
            "byteLength" : 1536,
            "byteOffset" : 6464
        },
        {
            "buffer" : 0,
            "byteLength" : 2424,
            "byteOffset" : 8000
        },
        {
            "buffer" : 0,
            "byteLength" : 2424,
            "byteOffset" : 10424
        },
        {
            "buffer" : 0,
            "byteLength" : 1616,
            "byteOffset" : 12848
        },
        {
            "buffer" : 0,
            "byteLength" : 2424,
            "byteOffset" : 14464
        },
        {
            "buffer" : 0,
            "byteLength" : 2424,
            "byteOffset" : 16888
        },
        {
            "buffer" : 0,
            "byteLength" : 1616,
            "byteOffset" : 19312
        },
        {
            "buffer" : 0,
            "byteLength" : 2424,
            "byteOffset" : 20928
        },
        {
            "buffer" : 0,
            "byteLength" : 2424,
            "byteOffset" : 23352
        },
        {
            "buffer" : 0,
            "byteLength" : 1616,
            "byteOffset" : 25776
        },
        {
            "buffer" : 0,
            "byteLength" : 6708,
            "byteOffset" : 27392
        },
        {
            "buffer" : 0,
            "byteLength" : 6708,
            "byteOffset" : 34100
        },
        {
            "buffer" : 0,
            "byteLength" : 4472,
            "byteOffset" : 40808
        },
        {
            "buffer" : 0,
            "byteLength" : 5760,
            "byteOffset" : 45280
        },
        {
            "buffer" : 0,
            "byteLength" : 6708,
            "byteOffset" : 51040
        },
        {
            "buffer" : 0,
            "byteLength" : 6708,
            "byteOffset" : 57748
        },
        {
            "buffer" : 0,
            "byteLength" : 4472,
            "byteOffset" : 64456
        },
        {
            "buffer" : 0,
            "byteLength" : 6708,
            "byteOffset" : 68928
        },
        {
            "buffer" : 0,
            "byteLength" : 6708,
            "byteOffset" : 75636
        },
        {
            "buffer" : 0,
            "byteLength" : 4472,
            "byteOffset" : 82344
        },
        {
            "buffer" : 0,
            "byteLength" : 6708,
            "byteOffset" : 86816
        },
        {
            "buffer" : 0,
            "byteLength" : 6708,
            "byteOffset" : 93524
        },
        {
            "buffer" : 0,
            "byteLength" : 4472,
            "byteOffset" : 100232
        },
        {
            "buffer" : 0,
            "byteLength" : 404,
            "byteOffset" : 104704
        },
        {
            "buffer" : 0,
            "byteLength" : 1212,
            "byteOffset" : 105108
        },
        {
            "buffer" : 0,
            "byteLength" : 1212,
            "byteOffset" : 106320
        },
        {
            "buffer" : 0,
            "byteLength" : 1212,
            "byteOffset" : 107532
        },
        {
            "buffer" : 0,
            "byteLength" : 1212,
            "byteOffset" : 108744
        },
        {
            "buffer" : 0,
            "byteLength" : 1212,
            "byteOffset" : 109956
        },
        {
            "buffer" : 0,
            "byteLength" : 1212,
            "byteOffset" : 111168
        }
    ],
    "buffers" : [
        {
            "byteLength" : 112380,
            "uri" : "data:application/octet-stream;base64,"
        }
    ]
}
