{
    "asset" : {
        "generator" : "Khronos glTF Blender I/O v3.2.40",
        "version" : "2.0"
    },
    "scene" : 0,
    "scenes" : [
        {
            "name" : "Scene",
            "nodes" : [
                1
            ]
        }
    ],
    "nodes" : [
        {
            "mesh" : 0,
            "name" : "Tree_PROXY"
        },
        {
            "children" : [
                0
            ],
            "name" : "Tree PROXY"
        }
    ],
    "materials" : [
        {
            "doubleSided" : true,
            "name" : "Leaf",
            "pbrMetallicRoughness" : {
                "baseColorFactor" : [
                    0.10639782249927521,
                    0.17434944212436676,
                    0.06408562511205673,
                    1
                ],
                "metallicFactor" : 0
            }
        },
        {
            "doubleSided" : true,
            "name" : "Bark",
            "pbrMetallicRoughness" : {
                "baseColorFactor" : [
                    0.1013825312256813,
                    0.039496395736932755,
                    0.0127190500497818,
                    1
                ],
                "metallicFactor" : 0,
                "roughnessFactor" : 0.5
            }
        }
    ],
    "meshes" : [
        {
            "name" : "Cylinder.002",
            "primitives" : [
                {
                    "attributes" : {
                        "POSITION" : 0,
                        "NORMAL" : 1,
                        "TEXCOORD_0" : 2
                    },
                    "indices" : 3,
                    "material" : 0
                },
                {
                    "attributes" : {
                        "POSITION" : 4,
                        "NORMAL" : 5,
                        "TEXCOORD_0" : 6
                    },
                    "indices" : 7,
                    "material" : 1
                }
            ]
        }
    ],
    "accessors" : [
        {
            "bufferView" : 0,
            "componentType" : 5126,
            "count" : 184,
            "max" : [
                4.270569324493408,
                9.56362533569336,
                2.6692559719085693
            ],
            "min" : [
                -3.0441932678222656,
                2.0699522495269775,
                -3.203470230102539
            ],
            "type" : "VEC3"
        },
        {
            "bufferView" : 1,
            "componentType" : 5126,
            "count" : 184,
            "type" : "VEC3"
        },
        {
            "bufferView" : 2,
            "componentType" : 5126,
            "count" : 184,
            "type" : "VEC2"
        },
        {
            "bufferView" : 3,
            "componentType" : 5123,
            "count" : 264,
            "type" : "SCALAR"
        },
        {
            "bufferView" : 4,
            "componentType" : 5126,
            "count" : 72,
            "max" : [
                0.6038466691970825,
                2.3154168128967285,
                0.18433824181556702
            ],
            "min" : [
                -0.21675819158554077,
                -0.005380036309361458,
                -0.361469030380249
            ],
            "type" : "VEC3"
        },
        {
            "bufferView" : 5,
            "componentType" : 5126,
            "count" : 72,
            "type" : "VEC3"
        },
        {
            "bufferView" : 6,
            "componentType" : 5126,
            "count" : 72,
            "type" : "VEC2"
        },
        {
            "bufferView" : 7,
            "componentType" : 5123,
            "count" : 114,
            "type" : "SCALAR"
        }
    ],
    "bufferViews" : [
        {
            "buffer" : 0,
            "byteLength" : 2208,
            "byteOffset" : 0
        },
        {
            "buffer" : 0,
            "byteLength" : 2208,
            "byteOffset" : 2208
        },
        {
            "buffer" : 0,
            "byteLength" : 1472,
            "byteOffset" : 4416
        },
        {
            "buffer" : 0,
            "byteLength" : 528,
            "byteOffset" : 5888
        },
        {
            "buffer" : 0,
            "byteLength" : 864,
            "byteOffset" : 6416
        },
        {
            "buffer" : 0,
            "byteLength" : 864,
            "byteOffset" : 7280
        },
        {
            "buffer" : 0,
            "byteLength" : 576,
            "byteOffset" : 8144
        },
        {
            "buffer" : 0,
            "byteLength" : 228,
            "byteOffset" : 8720
        }
    ],
    "buffers" : [
        {
            "byteLength" : 8948,
            "uri" : "data:application/octet-stream;base64,"
        }
    ]
}
